# xmcd
#
# Track frame offsets:
#	150
#	13390
#	28135
#	44897
#	62560
#	78497
#	90470
#	106080
#	126752
#
# Disc length: 1904 seconds
#
# Revision: 1
# Processed by: cddbd v1.5.1PL0 Copyright (c) Steve Scherf et al.
# Submitted via: audiograbber 1.81.02
#
DISCID=74076e09
DTITLE=Various Artist - 100% Country
DYEAR=1900
DGENRE=Country
TTITLE0=Sara Evans - Cryin' Game
TTITLE1=Clint Daniels - When I Grow Up
TTITLE2=Lisa Brokup - How Do I Let Go
TTITLE3=Jenny Simpson - Grow Young With You
TTITLE4=Andy Griggs - You Won't Ever Be Lonely
TTITLE5=Joni Harms - Two Steppin' Texas Blues
TTITLE6=Kenny Chesney - I Will Stand
TTITLE7=Warren Brothers - Cold Cold World
TTITLE8=Deryl Dodd - On Any Given Day
EXTD=
EXTT0=
EXTT1=
EXTT2=
EXTT3=
EXTT4=
EXTT5=
EXTT6=
EXTT7=
EXTT8=
PLAYORDER=
